<svg width="29" height="29" viewBox="0 0 29 29" fill="none" xmlns="http://www.w3.org/2000/svg">
<path d="M14.4999 1.20831C10.4836 1.20831 7.24992 4.44204 7.24992 8.45831V9.66665C5.92075 9.66665 4.83325 10.7541 4.83325 12.0833V24.1666C4.83325 25.4958 5.92075 26.5833 7.24992 26.5833H21.7499C23.0791 26.5833 24.1666 25.4958 24.1666 24.1666V12.0833C24.1666 10.7541 23.0791 9.66665 21.7499 9.66665V8.45831C21.7499 4.44204 18.5162 1.20831 14.4999 1.20831ZM14.4999 3.62498C17.2503 3.62498 19.3333 5.70792 19.3333 8.45831V9.66665H9.66658V8.45831C9.66658 5.70792 11.7495 3.62498 14.4999 3.62498ZM14.4999 15.7083C15.8291 15.7083 16.9166 16.7958 16.9166 18.125C16.9166 19.4541 15.8291 20.5416 14.4999 20.5416C13.1708 20.5416 12.0833 19.4541 12.0833 18.125C12.0833 16.7958 13.1708 15.7083 14.4999 15.7083Z" fill="#848484"/>
</svg>
