<svg width="207" height="49" viewBox="0 0 207 49" fill="none" xmlns="http://www.w3.org/2000/svg">
<path d="M3.32 39V11H15.44C17.9467 11 20.1067 11.4133 21.92 12.24C23.7333 13.04 25.1333 14.2 26.12 15.72C27.1067 17.24 27.6 19.0533 27.6 21.16C27.6 23.24 27.1067 25.04 26.12 26.56C25.1333 28.08 23.7333 29.2533 21.92 30.08C20.1067 30.88 17.9467 31.28 15.44 31.28H6.92L9.8 28.36V39H3.32ZM9.8 29.08L6.92 26H15.08C17.08 26 18.5733 25.5733 19.56 24.72C20.5467 23.8667 21.04 22.68 21.04 21.16C21.04 19.6133 20.5467 18.4133 19.56 17.56C18.5733 16.7067 17.08 16.28 15.08 16.28H6.92L9.8 13.2V29.08ZM32.1769 39V9.32H38.4169V39H32.1769ZM91.2725 17.16C92.9792 17.16 94.4992 17.5067 95.8325 18.2C97.1925 18.8667 98.2592 19.9067 99.0325 21.32C99.8058 22.7067 100.193 24.4933 100.193 26.68V39H93.9525V27.64C93.9525 25.9067 93.5658 24.6267 92.7925 23.8C92.0458 22.9733 90.9792 22.56 89.5925 22.56C88.6058 22.56 87.7125 22.7733 86.9125 23.2C86.1392 23.6 85.5258 24.2267 85.0725 25.08C84.6458 25.9333 84.4325 27.0267 84.4325 28.36V39H78.1925V17.48H84.1525V23.44L83.0325 21.64C83.8058 20.2 84.9125 19.0933 86.3525 18.32C87.7925 17.5467 89.4325 17.16 91.2725 17.16ZM116.685 39.32C114.232 39.32 112.072 38.84 110.205 37.88C108.365 36.92 106.938 35.6133 105.925 33.96C104.912 32.28 104.405 30.3733 104.405 28.24C104.405 26.08 104.898 24.1733 105.885 22.52C106.898 20.84 108.272 19.5333 110.005 18.6C111.738 17.64 113.698 17.16 115.885 17.16C117.992 17.16 119.885 17.6133 121.565 18.52C123.272 19.4 124.618 20.68 125.605 22.36C126.592 24.0133 127.085 26 127.085 28.32C127.085 28.56 127.072 28.84 127.045 29.16C127.018 29.4533 126.992 29.7333 126.965 30H109.485V26.36H123.685L121.285 27.44C121.285 26.32 121.058 25.3467 120.605 24.52C120.152 23.6933 119.525 23.0533 118.725 22.6C117.925 22.12 116.992 21.88 115.925 21.88C114.858 21.88 113.912 22.12 113.085 22.6C112.285 23.0533 111.658 23.7067 111.205 24.56C110.752 25.3867 110.525 26.3733 110.525 27.52V28.48C110.525 29.6533 110.778 30.6933 111.285 31.6C111.818 32.48 112.552 33.16 113.485 33.64C114.445 34.0933 115.565 34.32 116.845 34.32C117.992 34.32 118.992 34.1467 119.845 33.8C120.725 33.4533 121.525 32.9333 122.245 32.24L125.565 35.84C124.578 36.96 123.338 37.8267 121.845 38.44C120.352 39.0267 118.632 39.32 116.685 39.32ZM140.039 39.32C137.506 39.32 135.533 38.68 134.119 37.4C132.706 36.0933 131.999 34.16 131.999 31.6V12.72H138.239V31.52C138.239 32.4267 138.479 33.1333 138.959 33.64C139.439 34.12 140.093 34.36 140.919 34.36C141.906 34.36 142.746 34.0933 143.439 33.56L145.119 37.96C144.479 38.4133 143.706 38.76 142.799 39C141.919 39.2133 140.999 39.32 140.039 39.32ZM128.679 22.76V17.96H143.599V22.76H128.679ZM161.502 39.48C157.529 39.48 154.422 38.3733 152.182 36.16C149.942 33.9467 148.822 30.7867 148.822 26.68V11H155.302V26.44C155.302 29.1067 155.849 31.0267 156.942 32.2C158.036 33.3733 159.569 33.96 161.542 33.96C163.516 33.96 165.049 33.3733 166.142 32.2C167.236 31.0267 167.782 29.1067 167.782 26.44V11H174.182V26.68C174.182 30.7867 173.062 33.9467 170.822 36.16C168.582 38.3733 165.476 39.48 161.502 39.48ZM180.586 39V11H192.706C195.212 11 197.372 11.4133 199.186 12.24C200.999 13.04 202.399 14.2 203.386 15.72C204.372 17.24 204.866 19.0533 204.866 21.16C204.866 23.24 204.372 25.04 203.386 26.56C202.399 28.08 200.999 29.2533 199.186 30.08C197.372 30.88 195.212 31.28 192.706 31.28H184.186L187.066 28.36V39H180.586ZM187.066 29.08L184.186 26H192.346C194.346 26 195.839 25.5733 196.826 24.72C197.812 23.8667 198.306 22.68 198.306 21.16C198.306 19.6133 197.812 18.4133 196.826 17.56C195.839 16.7067 194.346 16.28 192.346 16.28H184.186L187.066 13.2V29.08Z" fill="white"/>
<path d="M57.9999 11C49.1775 11 42 17.7288 42 25.9999C42 34.2709 49.1776 41 57.9999 41C66.8224 41 74 34.2709 74 25.9999C74 17.7288 66.8224 11 57.9999 11ZM57.9999 12.4869C59.7722 12.4869 61.5053 12.7887 63.1556 13.3838C62.4913 13.921 61.7158 14.1932 60.8467 14.1932C59.6051 14.1932 58.1227 13.6296 56.5399 12.5595C57.038 12.5112 57.5273 12.4869 57.9999 12.4869ZM57.9999 39.5129C56.3576 39.5129 54.7555 39.2556 53.2219 38.7465C53.5489 38.7654 53.8811 38.7748 54.2169 38.7748C57.4954 38.7748 60.8403 37.8902 64.0747 37.0347C65.1924 36.7391 66.3418 36.4351 67.47 36.1737C64.8392 38.3317 61.5016 39.5129 57.9999 39.5129ZM69.4195 34.2306C69.3893 34.2328 69.3586 34.2366 69.3276 34.2419C67.5274 34.5485 65.7118 35.0422 63.7893 35.5653C60.6717 36.4133 57.448 37.2904 54.3274 37.2904C52.1636 37.2904 50.2672 36.8718 48.5293 36.0109C48.4328 35.9631 48.3316 35.9338 48.2275 35.9231C47.7116 35.4759 47.2286 34.9923 46.7872 34.4805C47.3764 34.5994 47.9844 34.6576 48.632 34.6576C50.6642 34.6576 52.7243 34.0645 54.7166 33.4908C56.0474 33.1079 57.4227 32.7119 58.7649 32.5026C59.3306 33.3599 60.752 33.9078 62.4379 33.9078C63.9381 33.9078 65.251 33.4678 65.9128 32.7518C67.1204 33.3041 68.4042 33.6675 69.7359 33.8338C69.6381 33.9609 69.5335 34.0926 69.4195 34.2306ZM70.6741 32.4277C69.1439 32.3361 67.6783 31.9482 66.3149 31.2737C66.0052 30.1814 64.429 29.425 62.4379 29.425C60.6157 29.425 59.1136 30.067 58.6519 31.0323C57.3882 31.2421 56.0605 31.6362 54.7756 32.0173C52.8007 32.6033 50.7587 33.209 48.8075 33.2094C47.5315 33.2094 46.4125 32.9534 45.386 32.4271C45.3588 32.413 45.3309 32.4007 45.3016 32.3894C44.785 31.4906 44.3787 30.538 44.0923 29.5542C45.3374 29.3123 46.5225 28.864 47.6195 28.22C48.099 28.5696 48.7156 28.7605 49.3707 28.7605C50.7973 28.7605 51.9577 27.8458 51.9577 26.7213C51.9577 26.6667 51.9544 26.6111 51.9477 26.5532C52.5872 26.4741 53.2531 26.4339 53.9298 26.4339C56.8091 26.4339 59.6968 27.155 62.4896 27.8524C65.3224 28.5598 68.2519 29.2914 71.2156 29.2914C71.4725 29.2914 71.7292 29.2857 71.9816 29.2748C71.688 30.376 71.2488 31.4352 70.6741 32.4277ZM72.4142 25.9997C72.4142 26.5808 72.3714 27.177 72.2874 27.774C71.9235 27.7967 71.5494 27.8086 71.174 27.8086C71.1736 27.8086 71.1734 27.8086 71.173 27.8086C68.2218 27.8086 65.2958 27.0908 62.4664 26.3967C59.6286 25.7005 56.6941 24.9807 53.7252 24.9807C52.8009 24.9807 51.9307 25.0475 51.0681 25.185C50.5955 24.8601 49.9961 24.6818 49.371 24.6818C47.9445 24.6818 46.7841 25.5967 46.7841 26.7214C46.7841 26.793 46.79 26.8671 46.8019 26.9459C45.8512 27.5012 44.8546 27.88 43.7638 28.1004C43.6896 27.6598 43.6385 27.2239 43.6115 26.8002C44.8793 26.3925 45.7746 25.4305 46.0185 24.204C46.2705 22.9372 45.7651 21.6467 44.6967 20.8067C45.1269 19.8421 45.6769 18.9245 46.3335 18.077C46.8625 17.8451 47.4234 17.7276 48.0004 17.7276C49.9416 17.7276 51.8064 18.9956 53.5322 20.3657C55.5078 21.934 57.2796 23.1221 59.5047 23.8225C60.9255 24.2699 62.4333 24.4967 63.9859 24.4967C66.7972 24.4967 69.5899 23.7375 71.8781 22.3548C72.2338 23.5427 72.4142 24.7679 72.4142 25.9997ZM71.3456 20.904C69.2295 22.252 66.6301 22.9927 64.0093 22.9927C62.1587 22.9929 60.3054 22.6224 58.6497 21.9222C57.3423 21.369 56.1079 20.4317 54.8012 19.439C52.7241 17.8617 50.5762 16.2306 48.0704 16.2306C48.0653 16.2306 48.0602 16.2306 48.055 16.2306C48.2562 16.0507 48.465 15.8747 48.6791 15.7039C48.6931 15.7021 48.7076 15.6995 48.7222 15.6958C49.0512 15.617 49.3875 15.5773 49.7218 15.5773C51.5883 15.5773 53.2635 16.8017 54.7956 18.1247C56.4418 19.5464 57.9707 20.7841 60.0123 21.5308C61.3078 22.0043 62.7034 22.2444 64.1601 22.2444C66.6457 22.2444 69.0811 21.5383 71.0427 20.2526C71.1456 20.4587 71.2459 20.6738 71.3456 20.904ZM64.2038 20.736C62.5431 20.736 60.8953 20.3679 59.4384 19.6714C58.2215 19.0896 57.1026 18.1441 56.0205 17.2295C54.4911 15.9368 52.9136 14.6036 50.9789 14.2023C52.0695 13.6299 53.2343 13.1941 54.4491 12.9046C55.8808 14.0508 57.4806 15.1545 59.4648 15.5398C59.8667 15.6179 60.2781 15.6573 60.6877 15.6573C62.1887 15.6573 63.5533 15.1454 64.53 14.2154C64.5903 14.1582 64.6388 14.0961 64.6755 14.0296C66.9843 15.1654 68.9178 16.8579 70.2838 18.9392C68.5372 20.099 66.3849 20.736 64.2038 20.736Z" fill="white"/>
<path d="M64.456 15.7598C64.0028 15.7598 63.5929 15.9012 63.2706 16.1687C62.4684 16.8355 62.4944 18.0959 63.329 18.9788C63.8032 19.4799 64.4698 19.7791 65.1123 19.7791C65.5655 19.7791 65.9753 19.6376 66.2974 19.3701C66.6898 19.044 66.8977 18.5689 66.8825 18.0322C66.8678 17.5061 66.6394 16.9833 66.2393 16.5603C65.7651 16.0593 65.0985 15.7598 64.456 15.7598Z" fill="white"/>
</svg>
